<?xml version="1.0" standalone="no"?><!DOCTYPE svg PUBLIC "-//W3C//DTD SVG 1.1//EN" "http://www.w3.org/Graphics/SVG/1.1/DTD/svg11.dtd"><svg t="1533091256822" class="icon" style="" viewBox="0 0 1024 1024" version="1.1" xmlns="http://www.w3.org/2000/svg" p-id="3519" xmlns:xlink="http://www.w3.org/1999/xlink" width="200" height="200"><defs><style type="text/css"></style></defs><path d="M1010.576779 491.183923c-9.174993-11.475514-224.872517-298.301961-497.933765-298.301961-273.055829 0-488.755762 286.827049-497.930754 298.301961-9.180411 11.470096-9.180411 29.831521 0 41.302218 9.174993 11.475514 224.874323 298.301961 497.930754 298.301961 273.061248 0 488.758772-286.826447 497.933765-298.301961 9.182218-13.765199 9.182218-29.832123 0-41.302218z m-497.933765 268.471042c-199.628794 0-374.021089-185.862391-426.79822-250.115638 52.777131-61.952725 227.169426-250.115036 426.79822-250.115036 199.631804 0 374.024701 185.867208 426.801832 250.115036-52.777733 64.253247-227.170028 250.115638-426.801832 250.115638z m0 0" p-id="3520"></path><path d="M514.937515 362.684052c-80.308732 0-146.85648 66.542329-146.85648 146.855877 0 80.31415 66.54835 146.85648 146.85648 146.85648 80.312344 0 146.854673-66.542329 146.854673-146.85648 0-80.313548-66.542329-146.855878-146.854673-146.855877z m0 227.169426c-43.596719 0-78.013629-34.421726-78.013629-78.018446 0-43.597321 34.41691-78.018446 78.013629-78.018446 43.602138 0 78.016639 34.421124 78.016639 78.018446 0 43.596719-34.414501 78.018446-78.016639 78.018446z m0 0" p-id="3521"></path></svg>