<?xml version="1.0" standalone="no"?><!DOCTYPE svg PUBLIC "-//W3C//DTD SVG 1.1//EN" "http://www.w3.org/Graphics/SVG/1.1/DTD/svg11.dtd"><svg t="1530085088701" class="icon" style="" viewBox="0 0 1025 1024" version="1.1" xmlns="http://www.w3.org/2000/svg" p-id="2793" xmlns:xlink="http://www.w3.org/1999/xlink" width="200.1953125" height="200"><defs><style type="text/css"></style></defs><path d="M1021.7472 356.5568 1019.392 358.8096 525.7216 1017.1392 521.1136 1021.7472 518.8608 1021.7472C517.3248 1023.2832 515.072 1024 512 1024c-3.072 0-5.3248-0.7168-6.8608-2.2528L502.8864 1021.7472 498.2784 1017.1392 4.608 358.8096c-1.536 0-2.2528-0.7168-2.2528-2.2528L2.3552 354.304C0.7168 352.768 0 351.232 0 349.696L0 347.4432 0 342.8352l2.2528-2.2528c0-1.4336 0.7168-3.072 2.2528-4.608L4.5056 333.7216l256-256c3.072-1.4336 5.3248-2.2528 6.8608-2.2528 1.536-1.4336 3.7888-2.2528 6.8608-2.2528l475.4432 0c3.072 0 5.3248 0.8192 6.8608 2.2528 1.536 0 3.072 0.8192 4.608 2.2528l2.2528 0 256 256c1.536 3.072 2.2528 5.3248 2.2528 6.8608L1024 342.8352l0 4.608 0 2.2528L1021.7472 354.304 1021.7472 356.5568zM54.8864 365.6704 452.608 896 260.608 365.6704 54.8864 365.6704zM256 134.8608 61.7472 329.1136 256 329.1136 256 134.8608zM470.8352 109.6704 292.5568 109.6704l0 192L470.8352 109.6704zM299.4176 365.6704 512 950.8864l212.5824-585.1136L299.4176 365.7728zM708.608 329.1136 512 118.8864 315.392 329.1136 708.608 329.1136zM731.4432 109.6704 553.1648 109.6704l178.2784 192L731.4432 109.6704zM571.392 896l397.7216-530.3296L763.392 365.6704 571.392 896zM962.2528 329.1136 768 134.8608l0 194.2528L962.2528 329.1136z" p-id="2794"></path></svg>